<svg width="143" height="27" viewBox="0 0 143 27" fill="none" xmlns="http://www.w3.org/2000/svg">
<path d="M16.206 0.169999V3.194H3.948V11.978H14.406V15.002H3.948V26H0.222V0.169999H16.206ZM28.9551 26C28.6191 26 28.3611 25.946 28.1811 25.838C28.0011 25.73 27.8571 25.52 27.7491 25.208L27.3711 23.57C26.9031 24.002 26.4411 24.392 25.9851 24.74C25.5291 25.076 25.0491 25.358 24.5451 25.586C24.0531 25.814 23.5251 25.988 22.9611 26.108C22.3971 26.228 21.7671 26.288 21.0711 26.288C20.3511 26.288 19.6791 26.192 19.0551 26C18.4311 25.796 17.8851 25.49 17.4171 25.082C16.9611 24.674 16.5951 24.17 16.3191 23.57C16.0551 22.958 15.9231 22.238 15.9231 21.41C15.9231 20.69 16.1151 20 16.4991 19.34C16.8951 18.68 17.5311 18.092 18.4071 17.576C19.2951 17.048 20.4471 16.616 21.8631 16.28C23.2911 15.944 25.0431 15.752 27.1191 15.704V14.336C27.1191 12.956 26.8191 11.918 26.2191 11.222C25.6311 10.514 24.7611 10.16 23.6091 10.16C22.8291 10.16 22.1751 10.262 21.6471 10.466C21.1311 10.658 20.6811 10.874 20.2971 11.114C19.9251 11.342 19.5951 11.552 19.3071 11.744C19.0191 11.936 18.7311 12.032 18.4431 12.032C18.2031 12.032 17.9991 11.972 17.8311 11.852C17.6751 11.72 17.5371 11.57 17.4171 11.402L16.8051 10.286C17.8251 9.326 18.9231 8.606 20.0991 8.126C21.2871 7.646 22.5951 7.406 24.0231 7.406C25.0551 7.406 25.9731 7.574 26.7771 7.91C27.5811 8.246 28.2531 8.72 28.7931 9.332C29.3451 9.932 29.7591 10.658 30.0351 11.51C30.3231 12.362 30.4671 13.304 30.4671 14.336V26H28.9551ZM22.0971 23.894C22.6371 23.894 23.1351 23.84 23.5911 23.732C24.0591 23.624 24.4911 23.468 24.8871 23.264C25.2951 23.06 25.6791 22.814 26.0391 22.526C26.3991 22.226 26.7591 21.89 27.1191 21.518V17.846C25.6791 17.894 24.4551 18.008 23.4471 18.188C22.4391 18.368 21.6171 18.602 20.9811 18.89C20.3571 19.178 19.9011 19.526 19.6131 19.934C19.3251 20.33 19.1811 20.768 19.1811 21.248C19.1811 21.716 19.2531 22.118 19.3971 22.454C19.5531 22.79 19.7631 23.066 20.0271 23.282C20.2911 23.486 20.5971 23.642 20.9451 23.75C21.3051 23.846 21.6891 23.894 22.0971 23.894ZM35.2379 26V7.73H37.1999C37.5719 7.73 37.8239 7.796 37.9559 7.928C38.0999 8.06 38.1959 8.3 38.2439 8.648L38.4599 11.312C39.0359 10.1 39.7439 9.146 40.5839 8.45C41.4239 7.754 42.4319 7.406 43.6079 7.406C44.0039 7.406 44.3759 7.448 44.7239 7.532C45.0839 7.616 45.3959 7.748 45.6599 7.928L45.4259 10.484C45.3539 10.808 45.1619 10.97 44.8499 10.97C44.6819 10.97 44.4299 10.934 44.0939 10.862C43.7699 10.79 43.4099 10.754 43.0139 10.754C42.4499 10.754 41.9459 10.838 41.5019 11.006C41.0699 11.174 40.6799 11.42 40.3319 11.744C39.9839 12.068 39.6719 12.464 39.3959 12.932C39.1319 13.4 38.8859 13.934 38.6579 14.534V26H35.2379ZM48.3863 26V7.73H50.4383C50.9183 7.73 51.2183 7.958 51.3383 8.414L51.5723 10.196C52.2443 9.392 52.9943 8.732 53.8223 8.216C54.6503 7.7 55.6163 7.442 56.7203 7.442C57.9443 7.442 58.9343 7.778 59.6903 8.45C60.4463 9.11 60.9923 10.01 61.3283 11.15C61.5923 10.502 61.9343 9.944 62.3543 9.476C62.7743 9.008 63.2423 8.624 63.7583 8.324C64.2743 8.024 64.8203 7.802 65.3963 7.658C65.9843 7.514 66.5783 7.442 67.1783 7.442C69.1343 7.442 70.6463 8.042 71.7143 9.242C72.7823 10.43 73.3163 12.134 73.3163 14.354V26H69.8963V14.354C69.8963 12.974 69.5903 11.93 68.9783 11.222C68.3783 10.514 67.5023 10.16 66.3503 10.16C65.8343 10.16 65.3423 10.25 64.8743 10.43C64.4183 10.61 64.0163 10.874 63.6683 11.222C63.3203 11.57 63.0443 12.008 62.8403 12.536C62.6363 13.064 62.5343 13.67 62.5343 14.354V26H59.1143V14.354C59.1143 12.938 58.8263 11.888 58.2503 11.204C57.6863 10.508 56.8523 10.16 55.7483 10.16C54.9923 10.16 54.2783 10.364 53.6063 10.772C52.9463 11.168 52.3463 11.72 51.8063 12.428V26H48.3863ZM73.3079 0.169999H76.2779C76.6019 0.169999 76.8659 0.253999 77.0699 0.421998C77.2859 0.577998 77.4419 0.787998 77.5379 1.052L84.6299 18.818C84.7979 19.238 84.9539 19.706 85.0979 20.222C85.2539 20.726 85.3979 21.254 85.5299 21.806C85.6499 21.254 85.7759 20.726 85.9079 20.222C86.0519 19.706 86.2079 19.238 86.3759 18.818L93.4499 1.052C93.5219 0.823999 93.6659 0.619998 93.8819 0.439999C94.1099 0.259999 94.3799 0.169999 94.6919 0.169999H97.6799L87.1679 26H83.8199L73.3079 0.169999ZM105.042 7.442C106.146 7.442 107.166 7.628 108.102 8C109.038 8.36 109.848 8.888 110.532 9.584C111.216 10.28 111.75 11.138 112.134 12.158C112.518 13.166 112.71 14.324 112.71 15.632C112.71 16.16 112.65 16.514 112.53 16.694C112.422 16.874 112.212 16.964 111.9 16.964H99.8396C99.8756 18.08 100.032 19.052 100.308 19.88C100.596 20.708 100.98 21.398 101.46 21.95C101.952 22.49 102.54 22.898 103.224 23.174C103.908 23.438 104.67 23.57 105.51 23.57C106.302 23.57 106.98 23.48 107.544 23.3C108.12 23.12 108.612 22.922 109.02 22.706C109.44 22.49 109.794 22.292 110.082 22.112C110.37 21.932 110.622 21.842 110.838 21.842C111.126 21.842 111.336 21.95 111.468 22.166L112.44 23.408C112.02 23.912 111.534 24.344 110.982 24.704C110.43 25.052 109.836 25.346 109.2 25.586C108.564 25.814 107.904 25.982 107.22 26.09C106.548 26.198 105.882 26.252 105.222 26.252C103.962 26.252 102.792 26.042 101.712 25.622C100.644 25.19 99.7196 24.566 98.9396 23.75C98.1596 22.922 97.5476 21.902 97.1036 20.69C96.6716 19.466 96.4556 18.062 96.4556 16.478C96.4556 15.206 96.6536 14.024 97.0496 12.932C97.4456 11.828 98.0096 10.874 98.7416 10.07C99.4856 9.254 100.386 8.612 101.442 8.144C102.51 7.676 103.71 7.442 105.042 7.442ZM105.096 9.944C103.596 9.944 102.414 10.382 101.55 11.258C100.698 12.122 100.164 13.322 99.9476 14.858H109.65C109.65 14.138 109.548 13.478 109.344 12.878C109.14 12.278 108.84 11.762 108.444 11.33C108.06 10.898 107.586 10.562 107.022 10.322C106.458 10.07 105.816 9.944 105.096 9.944ZM127.282 10.826C127.114 11.114 126.88 11.258 126.58 11.258C126.388 11.258 126.172 11.192 125.932 11.06C125.704 10.928 125.428 10.784 125.104 10.628C124.78 10.46 124.39 10.31 123.934 10.178C123.49 10.046 122.962 9.98 122.35 9.98C121.834 9.98 121.366 10.046 120.946 10.178C120.526 10.31 120.166 10.49 119.866 10.718C119.578 10.946 119.35 11.216 119.182 11.528C119.026 11.828 118.948 12.158 118.948 12.518C118.948 12.974 119.08 13.358 119.344 13.67C119.62 13.97 119.974 14.234 120.406 14.462C120.85 14.678 121.354 14.876 121.918 15.056C122.482 15.224 123.058 15.404 123.646 15.596C124.234 15.788 124.81 16.01 125.374 16.262C125.938 16.502 126.436 16.802 126.868 17.162C127.312 17.522 127.666 17.966 127.93 18.494C128.206 19.01 128.344 19.634 128.344 20.366C128.344 21.218 128.188 22.004 127.876 22.724C127.576 23.444 127.126 24.068 126.526 24.596C125.938 25.124 125.212 25.538 124.348 25.838C123.484 26.138 122.488 26.288 121.36 26.288C120.088 26.288 118.924 26.078 117.868 25.658C116.824 25.238 115.942 24.704 115.222 24.056L116.014 22.76C116.11 22.592 116.23 22.466 116.374 22.382C116.518 22.286 116.698 22.238 116.914 22.238C117.142 22.238 117.376 22.322 117.616 22.49C117.856 22.658 118.144 22.844 118.48 23.048C118.828 23.24 119.242 23.42 119.722 23.588C120.214 23.756 120.82 23.84 121.54 23.84C122.152 23.84 122.68 23.762 123.124 23.606C123.58 23.45 123.958 23.246 124.258 22.994C124.558 22.73 124.78 22.424 124.924 22.076C125.068 21.728 125.14 21.362 125.14 20.978C125.14 20.486 125.002 20.078 124.726 19.754C124.462 19.43 124.108 19.154 123.664 18.926C123.232 18.698 122.734 18.5 122.17 18.332C121.606 18.164 121.024 17.984 120.424 17.792C119.836 17.6 119.26 17.384 118.696 17.144C118.132 16.892 117.628 16.574 117.184 16.19C116.752 15.806 116.398 15.344 116.122 14.804C115.858 14.252 115.726 13.58 115.726 12.788C115.726 12.08 115.87 11.402 116.158 10.754C116.446 10.106 116.866 9.536 117.418 9.044C117.982 8.552 118.672 8.162 119.488 7.874C120.304 7.586 121.234 7.442 122.278 7.442C123.478 7.442 124.564 7.634 125.536 8.018C126.52 8.39 127.354 8.912 128.038 9.584L127.282 10.826ZM137.852 26.288C136.388 26.288 135.26 25.88 134.468 25.064C133.676 24.248 133.28 23.072 133.28 21.536V10.52H131.138C130.934 10.52 130.766 10.46 130.634 10.34C130.502 10.208 130.436 10.022 130.436 9.782V8.414L133.406 8.018L134.18 2.492C134.228 2.3 134.318 2.15 134.45 2.042C134.582 1.922 134.756 1.862 134.972 1.862H136.7V8.036H141.902V10.52H136.7V21.302C136.7 22.034 136.874 22.586 137.222 22.958C137.582 23.318 138.05 23.498 138.626 23.498C138.95 23.498 139.232 23.456 139.472 23.372C139.712 23.288 139.916 23.192 140.084 23.084C140.252 22.976 140.396 22.88 140.516 22.796C140.648 22.712 140.762 22.67 140.858 22.67C140.966 22.67 141.05 22.694 141.11 22.742C141.182 22.79 141.254 22.874 141.326 22.994L142.334 24.632C141.758 25.16 141.074 25.568 140.282 25.856C139.502 26.144 138.692 26.288 137.852 26.288Z" fill="white"/>
</svg>
